<?xml version="1.0" encoding="UTF-8"?>
<svg width="318px" height="171px" viewBox="0 0 318 171" version="1.1" xmlns="http://www.w3.org/2000/svg" xmlns:xlink="http://www.w3.org/1999/xlink">
    <!-- Generator: Sketch 45.2 (43514) - http://www.bohemiancoding.com/sketch -->
    <title>WowThatWasFastLogo</title>
    <desc>Created with Sketch.</desc>
    <defs></defs>
    <g id="Page-1" stroke="none" stroke-width="1" fill="none" fill-rule="evenodd">
        <g id="WowThatWasFastLogo" fill="#000000">
            <g id="WowThatWasFast" fill-rule="nonzero">
                <path d="M295.81161,40.7110759 C298.079339,37.3828599 302.689731,29.9924757 313.077291,29.9400341 C313.077291,29.9400341 302.89045,32.3860276 300.144879,43.3038294 C297.399341,54.2216352 292.555261,60.9949157 284.724552,63.6071327 C276.893779,66.2193824 267.045438,71.8887497 265.688365,82.2808111 C264.33133,92.6728397 251.347988,102.17519 242.828208,100.638417 C242.828208,100.638417 234.223117,90.4905252 251.956116,80.9536941 C261.127032,76.0215855 265.009004,70.8274908 266.619722,66.9615342 C266.619722,66.9615342 263.555465,73.3865975 249.799211,76.6548821 C237.582271,79.5574517 230.451517,82.3931177 227.822794,93.6195132 C227.822794,93.6195132 216.843577,77.6674298 233.971475,66.066603 C251.099338,54.4657803 250.269554,54.6036024 253.124437,47.7015061 C255.979358,40.7994506 262.211908,33.5003971 271.844544,32.8518654 C281.477213,32.2032969 282.742883,23.4333899 285.090014,20.7806978 C287.437145,18.1280057 289.513174,15.225187 297.736334,14.5811247 C305.959527,13.9370287 310.679235,10.5623891 312.475151,4.59049096 C312.475151,4.59049096 312.99494,16.2122578 299.297107,19.6348321 C299.297107,19.6348321 292.258744,22.4762715 291.255166,28.6773568 C290.251629,34.8784443 285.807492,39.9127219 278.939856,41.807494 C272.072216,43.7022335 266.059843,47.3899644 263.926943,56.6646338 C263.926943,56.6646338 269.52138,49.0780053 279.116603,48.7964507 C288.711826,48.5148226 293.543873,44.0392592 295.81161,40.7110759 Z M233.657927,54.5549615 C228.87888,57.229438 220.387819,62.10851 220.982856,68.7191878 C219.218055,61.8609136 220.414814,54.1557865 224.904525,48.5662419 C232.449166,39.1734578 246.553528,40.3008484 254.123404,31.3265996 C253.646902,44.9903234 243.733732,48.9162154 233.657927,54.5549615 Z M279.878953,73.1509329 C289.164042,69.9403781 298.276431,66.5080532 303.79319,57.7881564 C303.361144,70.9180853 291.214134,80.378545 280.036311,84.7833653 C277.233374,85.8879116 272.170656,85.8262851 271.696478,81.3349231 C271.235076,76.9645184 276.268087,74.3995383 279.878953,73.1509329 Z" id="Combined-Shape" transform="translate(266.639982, 52.696479) rotate(6.000000) translate(-266.639982, -52.696479) "></path>
                <g id="car">
                    <path d="M161.407772,104.998226 L66.6343624,104.998226 C66.4969759,104.998226 66.3689037,104.944669 66.2711031,104.851526 C66.1756311,104.751396 66.1244023,104.620996 66.1267309,104.483609 C66.1267309,104.413752 66.254803,97.3604676 66.254803,94.5964372 C66.254803,71.0684143 50.8814848,64.7905492 41.7976747,64.7905492 C31.1606984,64.7905492 25.1017203,71.3641446 21.8882729,76.8759053 C17.7969491,83.908232 16.7025141,91.5646195 16.7025141,94.9759966 C16.7025141,98.0869861 17.8132492,100.818416 18.0228218,101.312076 C18.0810365,101.395905 18.1136367,101.496035 18.1136367,101.600821 C18.1136367,101.88258 17.8877639,102.11311 17.6036765,102.11311 C17.601348,102.11311 17.5990194,102.11311 17.5943622,102.11311 C4.3959424,102.11311 0.907722059,95.4463707 0.907722059,91.9232216 C0.907722059,84.5020212 3.49012283,72.3770791 15.7920374,56.7359736 C23.1294088,47.4099907 30.5692378,41.1507542 30.641424,41.0878824 C30.7345674,41.0110391 30.848668,40.9714532 30.9674259,40.9714532 L34.0877298,40.9714532 C43.1389397,32.9192062 68.0268562,16.6586971 82.0030234,11.5753961 C93.6086911,7.35367144 106.290165,5.30451664 120.771635,5.30451664 C138.971856,5.30451664 153.583726,7.72857363 165.440881,12.7117455 C172.724695,15.7761634 178.90476,19.8488586 183.806431,24.818059 C187.508881,28.5694094 191.022716,32.7189479 194.236163,37.1502452 C209.607153,58.3124257 215.335472,81.2466594 215.335472,90.7356433 C215.335472,97.0926803 209.548938,102.199267 209.29978,102.413497 C209.204308,102.492669 209.090207,102.539241 208.964464,102.539241 L208.030701,102.539241 C207.856057,102.539241 207.690728,102.450754 207.595256,102.299396 C207.506769,102.150367 207.497455,101.96408 207.57197,101.805736 C209.248551,98.3780593 209.232251,95.2973413 209.218279,93.0549139 L209.218279,92.5170108 C209.218279,92.2189519 209.176365,85.1284106 205.89306,78.2520991 C201.932137,69.9669936 195.167597,65.7685549 185.781071,65.7685549 C176.266473,65.7685549 169.338933,69.9623365 165.19638,78.2288132 C161.587073,85.4194837 161.407772,93.0921713 161.407772,94.5591799 C161.407772,99.5702948 161.906089,104.397451 161.910746,104.441695 C161.927047,104.586067 161.880475,104.730439 161.787331,104.835225 C161.687202,104.937683 161.552144,104.998226 161.407772,104.998226 Z M67.1536368,103.982963 L160.846583,103.982963 C160.711525,102.550884 160.39018,98.6132463 160.39018,94.5521941 C160.39018,93.0455996 160.578796,85.1586822 164.285903,77.7654248 C168.6194,69.1263744 175.849656,64.7486346 185.781071,64.7486346 C195.451685,64.7486346 202.728513,69.2614324 206.808194,77.8026822 C210.196285,84.8885663 210.235871,92.2096376 210.235871,92.5100251 L210.235871,93.043271 C210.252171,95.2088551 210.266143,98.1195863 208.862006,101.423848 C209.933155,100.403928 214.310895,95.9260593 214.310895,90.7309861 C214.310895,80.6808132 207.828114,57.5975501 193.411844,37.7440343 C190.224011,33.3546516 186.745105,29.2470277 183.082241,25.530606 C178.276042,20.6568776 172.205421,16.6586971 165.040365,13.6478367 C153.311282,8.71822226 138.83214,6.3197797 120.769307,6.3197797 C106.408923,6.3197797 93.8415496,8.35263441 82.347654,12.5324445 C68.3971012,17.601774 43.4882274,33.9065262 34.6163186,41.8563155 C34.5231752,41.9424731 34.4020888,41.9867162 34.2786738,41.9867162 L31.1537127,41.9867162 C30.1011923,42.8902072 23.2970669,48.8327561 16.5767706,57.3809917 C4.46812853,72.7915672 1.92531371,84.6673508 1.92531371,91.9232216 C1.92531371,95.0272254 5.06657488,100.844031 16.8329149,101.088532 C16.4091124,99.9498541 15.6802653,97.6119548 15.6802653,94.9783252 C15.6802653,85.2029253 22.2561894,63.7706289 41.7930176,63.7706289 C61.9050062,63.7706289 67.2677375,83.1467847 67.2677375,94.5964372 C67.2723947,96.9273508 67.1815799,102.292411 67.1536368,103.982963 Z" id="Shape"></path>
                    <path d="M34.2833309,41.9867162 C34.0760869,41.9867162 33.8898001,41.8633012 33.8106282,41.6700287 C33.7291277,41.4720989 33.7803566,41.241569 33.9433575,41.0971967 C42.8688238,33.0938501 67.9523415,16.681983 82.005352,11.5730675 C82.2568392,11.4822527 82.5339408,11.5986819 82.6410557,11.8431833 C82.7528278,12.0853562 82.6550272,12.3717721 82.4221687,12.4998443 C82.2032817,12.6209307 60.2703396,24.7086155 42.1469625,41.4953848 C42.0561477,41.5745567 41.9443756,41.6257855 41.8232892,41.6304427 L34.3066168,41.9890448 C34.2973024,41.9867162 34.2879881,41.9867162 34.2833309,41.9867162 Z M74.9380965,15.7435632 C61.4998325,22.2845585 43.7932721,34.0322698 35.7200679,40.9015956 L41.5881021,40.6198368 C53.4731999,29.6382299 66.9580357,20.6708491 74.9380965,15.7435632 Z" id="Shape"></path>
                    <path d="M30.6716956,67.63608 C30.45048,67.63608 30.2478931,67.4917078 30.1826927,67.2681636 L29.6331467,65.4006384 C29.5935607,65.2655805 29.6098608,65.1235368 29.682047,64.9977932 C29.7798475,64.8301351 39.7392056,47.7848929 47.2605352,40.4777931 C47.4607935,40.282192 47.7821382,40.2845206 47.9800679,40.4871075 C48.1756691,40.6873658 48.1733405,41.0110391 47.9707536,41.2066402 C40.9756842,48.008437 31.7870878,63.4353127 30.6763528,65.3214665 L31.163027,66.9794191 C31.2421989,67.2518635 31.0885123,67.5359509 30.820725,67.6151228 C30.7694962,67.6290943 30.7182673,67.63608 30.6716956,67.63608 Z" id="Shape"></path>
                    <path d="M103.99418,94.8525816 C95.8511184,94.8525816 81.3743055,94.6383517 77.3598249,90.6238712 C72.7096407,85.9760155 71.731635,75.2528816 71.731635,67.0842054 C71.731635,57.8304086 74.1487062,43.5561825 74.6912665,40.4591644 C63.7352741,40.5150505 34.6093328,41.9727447 34.3089454,41.9867162 C34.0365009,42.0100021 33.7896709,41.7864579 33.7756994,41.5046991 C33.7617279,41.2229403 33.9759577,40.9830961 34.2577165,40.9691246 C34.5650897,40.9551531 64.8180661,39.4415728 75.2920414,39.4392442 C75.2966986,39.4392442 75.3036844,39.4392442 75.3129987,39.4392442 L162.939981,39.4392442 C163.08901,39.4392442 163.233383,39.5067732 163.328855,39.6208738 C163.428984,39.7373031 163.46857,39.8886611 163.442955,40.0376906 C161.633645,50.3952367 158.434169,65.4844675 151.625386,76.9597344 C144.586074,88.8331893 134.764102,94.8549102 122.434245,94.8549102 L105.45886,94.8549102 C104.995472,94.8525816 104.50414,94.8525816 103.99418,94.8525816 Z M75.7228297,40.4591644 C75.2547841,43.1067656 72.7492266,57.7163079 72.7492266,67.0842054 C72.7492266,72.1395634 73.1194716,76.5662035 73.8553045,80.2430392 C74.7541383,84.7535084 76.1745752,88.0018845 78.0793577,89.906667 C82.0472665,93.8722473 98.4428335,93.8396471 105.454203,93.8326613 L122.429588,93.8326613 C134.540558,93.8326613 143.805998,88.1415996 150.745181,76.4358028 C157.339734,65.3307809 160.513595,50.7119242 162.329892,40.4591644 L75.7228297,40.4591644 L75.7228297,40.4591644 Z" id="Shape"></path>
                    <path d="M73.9810481,83.2585568 L65.0229816,83.2585568 C64.7412228,83.2585568 64.5130215,83.0303555 64.5130215,82.7509253 C64.5130215,82.4668379 64.7435514,82.2386366 65.0229816,82.2386366 L73.9810481,82.2386366 C74.2628069,82.2386366 74.4910082,82.4668379 74.4910082,82.7509253 C74.4910082,83.0303555 74.2628069,83.2585568 73.9810481,83.2585568 Z" id="Shape"></path>
                    <path d="M208.962135,102.534583 C208.852692,102.534583 208.747905,102.504312 208.659419,102.434454 C208.428889,102.266796 208.384646,101.94778 208.554633,101.721907 C214.078036,94.3286499 213.384118,88.9449614 210.340657,77.5302377 C204.405094,55.2945795 191.716634,37.5763762 191.586234,37.3994038 C191.423233,37.173531 191.472133,36.8521863 191.702663,36.6891853 C191.930864,36.5238558 192.247552,36.5774132 192.41521,36.803286 C192.543282,36.982587 205.341185,54.8451626 211.327977,77.2671076 C214.390067,88.7656604 215.139871,94.6127373 209.371966,102.329668 C209.269508,102.464726 209.115822,102.534583 208.962135,102.534583 Z" id="Shape"></path>
                    <path d="M11.09761,101.412206 C10.9276233,101.412206 10.7622938,101.326048 10.6668218,101.172361 C10.5969643,101.060589 8.93202598,98.3803878 8.93202598,93.4507734 C8.93202598,87.8016262 11.2769111,67.3030924 41.4577013,40.7385947 C41.6696026,40.5499793 41.9932759,40.5709365 42.1772341,40.7828378 C42.3635209,40.994739 42.3425636,41.3160837 42.1306624,41.5023705 C12.2712169,67.7874381 9.94961763,87.9064125 9.94961763,93.4507734 C9.94961763,98.0613717 11.5120982,100.604187 11.5260697,100.629801 C11.6750991,100.869645 11.6052416,101.181676 11.3677259,101.333034 C11.2838968,101.386591 11.1884249,101.412206 11.09761,101.412206 Z" id="Shape"></path>
                    <path d="M62.9714982,39.0480419 C60.5800414,39.0480419 60.2214393,37.6974626 60.2214393,36.8941008 C60.2214393,34.9939754 60.2028106,33.913512 60.2028106,33.9111834 L60.2028106,29.570701 C60.2028106,27.6729042 63.4907726,24.8320305 66.4317755,23.5629517 C68.2573861,22.7735613 70.0597109,22.3730447 71.7828638,22.3730447 L71.9831221,22.3730447 C74.1999351,22.3730447 76.568106,23.4278937 76.568106,26.3851967 L76.568106,31.4801407 C76.568106,31.6594417 76.472634,31.8270998 76.3189474,31.9179147 C76.1652608,32.0087295 75.9743168,32.0157152 75.8159731,31.927229 C75.8066587,31.9225718 74.7005808,31.3427542 73.0356426,31.3427542 C72.4511677,31.3427542 71.8643643,31.4149403 71.2822181,31.5546554 L71.2822181,36.5122129 C71.2822181,36.7287713 71.1448315,36.9220438 70.9399161,36.9919014 C70.7350006,37.0640875 65.8868866,38.7313544 64.4548068,38.9292841 C64.0449759,38.9828416 63.5070727,39.0480419 62.9714982,39.0480419 Z M61.2204023,33.8995405 C61.2204023,33.8995405 61.2436881,34.9846611 61.2436881,36.8941008 C61.2436881,37.2620172 61.2436881,38.0281217 62.9738268,38.0281217 C63.4465295,38.0281217 63.9401895,37.9675785 64.3174203,37.9186782 C65.446784,37.7649916 69.1212912,36.5354987 70.2692836,36.146625 L70.2692836,31.1611245 C70.2692836,30.9352518 70.418313,30.7349935 70.6348714,30.6744503 C71.4265903,30.4439203 72.2369379,30.3274911 73.0402997,30.3274911 C74.1114488,30.3274911 74.9823396,30.5347352 75.552843,30.7256791 L75.552843,26.3828681 C75.552843,23.6817095 73.0589284,23.3906364 71.9877793,23.3906364 L71.787521,23.3906364 C70.2017546,23.3906364 68.5368163,23.7608814 66.8416065,24.4943857 C64.1125048,25.6749783 61.2227308,28.2806649 61.2227308,29.5683724 L61.2227308,33.8995405 L61.2204023,33.8995405 Z" id="Shape"></path>
                    <path d="M60.6894849,34.6237304 C60.4682693,34.6237304 60.2656824,34.4793582 60.200482,34.255814 C60.1236387,33.9880267 60.2773253,33.7039394 60.5497698,33.6247675 L70.6325428,30.6721217 C70.9003301,30.5929498 71.1844175,30.7466364 71.2635894,31.0190808 C71.3427613,31.2868681 71.1867461,31.5709555 70.9189588,31.6501274 L60.8315286,34.6027732 C60.7849569,34.6167447 60.7383852,34.6237304 60.6894849,34.6237304 Z" id="Shape"></path>
                    <path d="M66.6343624,104.490595 C66.6343624,104.490595 66.7647632,97.4000536 66.7647632,94.5941086 C66.7647632,84.0246613 61.9213063,64.280589 41.7953461,64.280589 C21.669386,64.280589 16.192554,86.9493641 16.192554,94.9759966 C16.192554,98.5433888 17.5943622,101.600821 17.5943622,101.600821 L21.7043147,101.600821 C23.0036652,109.641425 32.6672929,115.039085 39.3782749,115.039085 L45.707369,115.039085 L44.9808504,115.039085 C50.6975266,115.034428 56.4654317,111.907138 59.5205352,107.564327 C59.9978951,107.606242 61.2017736,108.137159 62.899312,108.137159 C66.9813216,108.137159 70.7024004,106.788908 73.5921744,104.490595 L66.6343624,104.490595 Z M41.7953461,108.227974 C33.5637982,108.227974 26.8924021,101.556578 26.8924021,93.3227012 C26.8924021,85.0934818 33.5637982,78.4197572 41.7953461,78.4197572 C50.0268941,78.4197572 56.7006188,85.0934818 56.7006188,93.3227012 C56.7006188,101.554249 50.0268941,108.227974 41.7953461,108.227974 Z" id="Shape"></path>
                    <path d="M209.723582,92.5123536 C209.723582,90.2256832 208.708319,65.2562662 185.781071,65.2562662 C162.853823,65.2562662 160.895483,89.4595787 160.895483,94.5521941 C160.895483,99.6471381 161.407772,104.490595 161.407772,104.490595 L155.271951,104.490595 C158.299111,107.331469 162.364821,109.07325 166.842689,109.07325 C167.329364,109.07325 167.813709,109.047636 168.295727,109.010378 C171.346173,113.357847 176.902177,116.201049 182.614196,116.210363 L182.614196,116.210363 L189.432293,116.210363 C195.800973,116.210363 205.057098,109.413224 206.619579,102.029281 L208.026044,102.029281 C209.898226,98.205744 209.723582,94.8083385 209.723582,92.5123536 Z M185.860243,109.755526 C177.631024,109.755526 170.957299,103.08413 170.957299,94.8549102 C170.957299,86.618705 177.631024,79.947309 185.860243,79.947309 C194.089463,79.947309 200.760859,86.618705 200.760859,94.8549102 C200.760859,103.08413 194.089463,109.755526 185.860243,109.755526 Z" id="Shape"></path>
                    <circle id="Oval" cx="41.8605465" cy="89.8554381" r="1.273736"></circle>
                    <circle id="Oval" cx="38.7588713" cy="92.2492235" r="1.273736"></circle>
                    <circle id="Oval" cx="40.0768504" cy="95.9400308" r="1.273736"></circle>
                    <circle id="Oval" cx="43.9912018" cy="95.8212729" r="1.273736"></circle>
                    <circle id="Oval" cx="45.0926225" cy="92.0652653" r="1.273736"></circle>
                    <path d="M45.5327251,81.8590772 C45.5327251,80.9998294 44.9086643,80.2872824 44.0866738,80.1498958 L44.0890024,80.1382529 C43.3461838,80.0078522 42.5800793,79.9449804 41.7953461,79.9449804 C41.0152702,79.9449804 40.2468371,80.0078522 39.5040185,80.1382529 L39.5040185,80.1498958 C38.6866852,80.2896109 38.0602958,80.9998294 38.0602958,81.8590772 C38.0602958,82.2479509 38.1930251,82.606553 38.4095836,82.8952976 L40.4005237,85.6313849 L40.4098381,85.6313849 C40.7265256,86.0598446 41.2318286,86.3392748 41.8023319,86.3392748 C42.3751638,86.3392748 42.8781382,86.0598446 43.1948257,85.6313849 L43.2064687,85.6313849 L45.2276804,82.8510545 L45.2160375,82.8510545 C45.4139672,82.5669671 45.5327251,82.2269937 45.5327251,81.8590772 Z" id="Shape"></path>
                    <path d="M35.0634069,83.3191 C34.3857887,82.7905112 33.4403832,82.8463973 32.8233081,83.4029291 L32.8209795,83.3982719 C32.2621191,83.9059035 31.7358589,84.4670924 31.2538418,85.0841675 C30.7718247,85.7035711 30.355008,86.343932 29.9964059,87.0099073 L30.0010631,87.0145644 C29.6075322,87.7503973 29.7845047,88.6771741 30.4621229,89.2080915 C30.7671676,89.4479358 31.1304268,89.5620364 31.4936861,89.5713508 L34.8771201,89.6854514 L34.8817773,89.6761371 C35.4150232,89.6924372 35.943612,89.4665645 36.2952284,89.014819 C36.6491733,88.5630735 36.7376595,87.9948987 36.5956158,87.48261 L36.6026016,87.4732957 L35.6571961,84.1690336 L35.6502103,84.1783479 C35.5500812,83.852346 35.35448,83.5473014 35.0634069,83.3191 Z" id="Shape"></path>
                    <path d="M29.7682046,92.4704391 C28.9345712,92.6776832 28.3989966,93.4554306 28.4572112,94.2844068 L28.4502255,94.2844068 C28.5037829,95.041197 28.627198,95.7956585 28.8158133,96.5594344 C29.0067573,97.3162245 29.2535873,98.042743 29.5609605,98.7343328 L29.5679463,98.7343328 C29.9032625,99.4957801 30.7415531,99.9312255 31.5775152,99.7216528 C31.9570745,99.6261808 32.2691049,99.411951 32.4996348,99.1325208 L34.6745332,96.5361485 L34.6722046,96.5268342 C35.0075209,96.1170032 35.1565503,95.5604714 35.0191638,95.0039396 C34.8794487,94.4520649 34.4859178,94.0282625 33.996915,93.8256756 L33.9945864,93.8140327 L30.8067535,92.5263251 L30.8090821,92.5356395 C30.4877374,92.4098959 30.1268067,92.3796243 29.7682046,92.4704391 Z" id="Shape"></path>
                    <path d="M33.7198134,102.276111 C33.3728542,103.063172 33.6522844,103.964335 34.3438741,104.427723 L34.339217,104.43238 C34.9679349,104.856183 35.640896,105.228756 36.353443,105.543115 C37.0683186,105.862131 37.7948371,106.113619 38.5283414,106.297577 L38.53067,106.288263 C39.3363604,106.493178 40.1956083,106.099647 40.544896,105.312585 C40.7032398,104.960969 40.7265256,104.576753 40.6473537,104.222808 L39.9417925,100.913888 L39.9348067,100.909231 C39.8183775,100.389957 39.4714183,99.933554 38.9498153,99.698367 C38.4282122,99.4631799 37.8530517,99.5190659 37.3919919,99.7775388 L37.3826776,99.7728817 L34.4020888,101.489049 L34.4137317,101.493706 C34.1156728,101.675336 33.8711714,101.938466 33.7198134,102.276111 Z" id="Shape"></path>
                    <path d="M43.8794297,105.198485 C44.2822749,105.959932 45.1694658,106.29292 45.9565276,106.027461 L45.9588561,106.036775 C46.6783889,105.803917 47.3839502,105.501201 48.0755399,105.130956 C48.7648011,104.763039 49.4074905,104.35088 50.0059369,103.882834 L50.0012797,103.878177 C50.6602693,103.36356 50.8791563,102.450754 50.4739825,101.689307 C50.2923528,101.347005 50.0059369,101.093189 49.679935,100.939503 L46.6341458,99.4561941 L46.62716,99.4608513 C46.1474715,99.2349785 45.5699824,99.2256642 45.0646795,99.4911229 C44.5617051,99.7635673 44.2473462,100.247913 44.1658457,100.769516 L44.1565313,100.774173 L43.6768428,104.183222 L43.6861572,104.173907 C43.6488998,104.516209 43.7047859,104.867826 43.8794297,105.198485 Z" id="Shape"></path>
                    <path d="M52.434651,98.9928057 C53.282256,99.1418351 54.0879464,98.6505037 54.3720338,97.8704277 L54.3790195,97.8704277 C54.6351639,97.1578807 54.8354222,96.4173907 54.9681515,95.6466291 C55.105538,94.8805246 55.1707384,94.1144201 55.173067,93.35763 L55.1660812,93.35763 C55.1684098,92.5286537 54.5792778,91.7858351 53.7316729,91.6368057 C53.3474564,91.5669481 52.9725542,91.6368057 52.6512094,91.7998066 L49.6100774,93.2877724 L49.6077488,93.2994154 C49.1327175,93.5392596 48.7694582,93.9863479 48.6693291,94.5475369 C48.5715285,95.1087259 48.7578153,95.6536148 49.1234032,96.0401599 L49.1210746,96.0518028 L51.5055456,98.5270887 L51.5078742,98.5131172 C51.7570328,98.7529614 52.0737204,98.9276053 52.434651,98.9928057 Z" id="Shape"></path>
                    <path d="M52.8142104,88.4303441 C53.4522427,87.852855 53.5616862,86.9190925 53.119255,86.2112026 L53.1262408,86.2065454 C52.7233956,85.5708417 52.2600072,84.9514381 51.7337469,84.3692919 C51.2121439,83.7918028 50.6486263,83.2655426 50.0571657,82.797497 L50.05018,82.8068113 C49.3981762,82.2898655 48.4504421,82.2991798 47.8147384,82.8766689 C47.5236653,83.1351418 47.3466928,83.4727866 47.2768353,83.8313887 L46.5759312,87.140308 L46.5829169,87.1496224 C46.4781306,87.6688968 46.6085314,88.2300858 46.9904193,88.6562169 C47.3699787,89.0800193 47.9148675,89.2639776 48.4457849,89.2127487 L48.4527707,89.2243916 L51.873462,88.8657895 L51.8641477,88.8611323 C52.2087783,88.8168892 52.5394374,88.6771741 52.8142104,88.4303441 Z" id="Shape"></path>
                    <circle id="Oval" cx="185.918458" cy="91.3876471" r="1.273736"></circle>
                    <circle id="Oval" cx="182.82144" cy="93.7791039" r="1.27140741"></circle>
                    <circle id="Oval" cx="184.139419" cy="97.4675825" r="1.273736"></circle>
                    <path d="M187.271366,98.3547734 C187.82324,98.7878902 188.624274,98.6900897 189.059719,98.1358864 C189.492836,97.5793546 189.392707,96.7759928 188.833846,96.342876 C188.281972,95.9144163 187.480938,96.0145455 187.047822,96.5687487 C186.614705,97.1276091 186.714834,97.9239852 187.271366,98.3547734 Z" id="Shape"></path>
                    <circle id="Oval" cx="189.155191" cy="93.5928171" r="1.273736"></circle>
                    <path d="M189.595294,83.3889576 C189.595294,82.5297097 188.966576,81.8171627 188.146914,81.6797762 L188.153899,81.6727904 C187.406424,81.5423897 186.640319,81.4748607 185.860243,81.4748607 C185.077839,81.4748607 184.311734,81.5423897 183.566587,81.6681333 L183.566587,81.6797762 C182.744596,81.8194913 182.125193,82.5297097 182.125193,83.3889576 C182.125193,83.7778313 182.260251,84.1341048 182.472152,84.4228493 L184.460764,87.1612653 L184.477064,87.1612653 C184.789094,87.5897249 185.292068,87.8691551 185.8649,87.8691551 C186.437732,87.8691551 186.940707,87.5897249 187.259723,87.1612653 L187.269037,87.1612653 L189.294906,84.3809348 L189.283263,84.3809348 C189.476536,84.099176 189.595294,83.756874 189.595294,83.3889576 Z" id="Shape"></path>
                    <path d="M179.125975,84.851309 C178.446029,84.318063 177.50528,84.3716205 176.888205,84.935138 L176.881219,84.9234951 C176.32003,85.4334552 175.796099,85.9993014 175.314082,86.6117192 C174.836722,87.2287943 174.412919,87.8761409 174.061303,88.537459 L174.06596,88.5467734 C173.672429,89.2779491 173.847073,90.2093831 174.522363,90.7356433 C174.832065,90.9754875 175.195324,91.0872596 175.556255,91.0989025 L178.935031,91.2130032 L178.946674,91.2036889 C179.472935,91.2176604 180.00618,90.9941162 180.357797,90.5423707 C180.704756,90.0952824 180.795571,89.5224505 180.655856,89.0101618 L180.667499,89.0055046 L179.717436,85.6942567 L179.71045,85.7058997 C179.614978,85.3775692 179.41472,85.0748531 179.125975,84.851309 Z" id="Shape"></path>
                    <path d="M173.833102,93.9956623 C172.999468,94.2052349 172.459236,94.9876395 172.51978,95.8119586 L172.512794,95.8119586 C172.566351,96.5687487 172.687438,97.3232103 172.876053,98.0869861 C173.064669,98.8414477 173.313827,99.5702948 173.6212,100.261885 L173.625858,100.261885 C173.965831,101.023332 174.801793,101.456449 175.635426,101.246876 C176.014986,101.15839 176.329345,100.939503 176.557546,100.660073 L178.732444,98.0637003 L178.732444,98.0543859 C179.067761,97.644555 179.21679,97.0880232 179.074746,96.5361485 C178.939689,95.9796167 178.546158,95.5604714 178.054826,95.3508988 L178.054826,95.3415844 L174.864665,94.0515483 L174.869322,94.0631912 C174.547977,93.9421048 174.191704,93.9071761 173.833102,93.9956623 Z" id="Shape"></path>
                    <path d="M177.782382,103.803662 C177.430765,104.590724 177.714853,105.491886 178.406443,105.952946 L178.401785,105.959932 C179.030503,106.381406 179.705793,106.756308 180.416011,107.075324 C181.133216,107.387355 181.859734,107.64117 182.59091,107.825129 L182.595567,107.820471 C183.403586,108.025387 184.258177,107.627199 184.612122,106.844794 C184.76348,106.486192 184.789094,106.108961 184.709922,105.755017 L184.004361,102.439112 L183.992718,102.439112 C183.878617,101.917508 183.531658,101.458777 183.007727,101.225919 C182.483795,100.995389 181.913292,101.046618 181.449903,101.305091 L181.440589,101.298105 L178.46,103.014272 L178.469314,103.018929 C178.175913,103.200559 177.931411,103.466017 177.782382,103.803662 Z" id="Shape"></path>
                    <path d="M187.937341,106.723708 C188.347172,107.485155 189.227377,107.820471 190.019096,107.55967 L190.019096,107.564327 C190.740957,107.32914 191.446519,107.028753 192.138108,106.658508 C192.825041,106.295248 193.472388,105.876103 194.068505,105.415043 L194.063848,105.405729 C194.720509,104.895769 194.939396,103.978306 194.536551,103.216859 C194.35725,102.874557 194.068505,102.618413 193.740175,102.464726 L190.699043,100.988403 L190.6874,100.988403 C190.205383,100.76253 189.634879,100.753216 189.124919,101.023332 C188.621945,101.291119 188.309915,101.773136 188.230743,102.297068 L188.2191,102.301725 L187.737083,105.710773 L187.746397,105.706116 C187.711468,106.043761 187.769683,106.400035 187.937341,106.723708 Z" id="Shape"></path>
                    <path d="M196.497219,100.520357 C197.342496,100.669387 198.155172,100.178055 198.432274,99.3956509 L198.443917,99.4026367 C198.695404,98.6900897 198.895662,97.9426139 199.03072,97.1718522 C199.165778,96.4057478 199.233307,95.6396433 199.240293,94.8851818 L199.22865,94.8851818 C199.233307,94.0538769 198.641846,93.3110583 197.79657,93.1643574 C197.414682,93.0991571 197.035123,93.1690146 196.716106,93.3273584 L193.670317,94.8153242 L193.670317,94.8246385 C193.192957,95.0668114 192.836684,95.5115711 192.736555,96.0750887 C192.636426,96.6362777 192.825041,97.178838 193.1883,97.5677117 L193.183643,97.5793546 L195.570443,100.05464 L195.5751,100.040669 C195.819601,100.280513 196.13396,100.455157 196.497219,100.520357 Z" id="Shape"></path>
                    <path d="M196.87445,89.9578959 C197.51714,89.3804068 197.626583,88.4443156 197.179495,87.7387544 L197.188809,87.7387544 C196.785964,87.0960649 196.322576,86.4789899 195.800973,85.9015008 C195.277041,85.3193546 194.715852,84.7954229 194.117406,84.3297059 L194.112748,84.3343631 C193.460745,83.8150886 192.513011,83.8267316 191.87265,84.4042207 C191.583905,84.660365 191.41159,85.0003384 191.339404,85.3589405 L190.6385,88.6678598 L190.643157,88.6771741 C190.53837,89.2011058 190.668771,89.7576376 191.050659,90.1837686 C191.434876,90.6075711 191.975107,90.7915293 192.508353,90.7449576 L192.513011,90.7519434 L195.938359,90.3979985 L195.929045,90.3886841 C196.26669,90.344441 196.602006,90.2047259 196.87445,89.9578959 Z" id="Shape"></path>
                    <path d="M149.431859,49.6291322 L87.0164669,49.6291322 C86.3155628,49.6291322 85.7427309,49.0586289 85.7427309,48.3553962 C85.7427309,47.6498349 86.3155628,47.0816602 87.0164669,47.0816602 L149.434188,47.0816602 C150.139749,47.0816602 150.707924,47.6521635 150.707924,48.3553962 C150.705595,49.0609575 150.137421,49.6291322 149.431859,49.6291322 Z" id="Shape"></path>
                    <path d="M126.930742,5.60024694 C126.930742,2.73841597 124.094526,0.419145301 120.601648,0.419145301 C117.108771,0.419145301 114.277212,2.73841597 114.277212,5.60024694 L114.277212,5.94953469 C114.277212,5.94953469 117.600102,5.80981959 120.643563,5.80981959 C123.687024,5.80981959 126.9191,5.90762016 126.9191,5.90762016 L126.930742,5.60024694 Z" id="Shape"></path>
                    <path d="M76.0604745,31.4778121 C76.0604745,31.4778121 73.8296901,30.2692765 70.7722579,31.1587959 L70.7722579,36.5098843 C70.7722579,37.3970752 72.746898,37.6532195 73.594503,37.6532195 C74.4467651,37.6532195 76.0581459,37.1875025 76.0581459,35.5737931 C76.0604745,33.9624123 76.0604745,31.4778121 76.0604745,31.4778121 Z" id="Shape"></path>
                    <path d="M183.440843,25.1743325 C178.280699,19.942002 172.061048,16.0486078 165.240623,13.1797911 C165.240623,13.1797911 165.822769,16.4258386 167.778781,19.1432973 C169.730135,21.860756 177.202564,31.9644864 179.153918,33.4966953 C181.10993,35.024247 193.824004,37.448304 193.824004,37.448304 C190.754929,33.2195937 187.301637,29.0840267 183.440843,25.1743325 Z M178.092084,25.0159887 C177.360908,25.0159887 176.613432,24.7435443 176.245516,24.380285 C175.877599,24.0146971 168.016296,15.1777171 168.016296,15.1777171 C173.202055,17.6949174 177.96634,20.8711074 182.104236,24.8623021 C182.101907,24.8599735 178.823259,25.0159887 178.092084,25.0159887 Z" id="Shape"></path>
                    <path d="M75.2966986,39.9492043 C75.2966986,39.9492043 78.9898344,25.0462603 87.2702827,17.7834037 C95.550731,10.5228756 107.014355,8.8672517 121.791555,8.8672517 C136.568756,8.8672517 163.061067,9.37721181 163.061067,33.7062679 C163.061067,36.7637 162.935324,39.9492043 162.935324,39.9492043 L137.965907,39.9492043 C137.965907,39.9492043 138.096308,32.4325319 119.111354,32.4325319 C101.791339,32.4325319 99.3696104,39.9492043 99.3696104,39.9492043 L75.2966986,39.9492043 Z" id="Shape"></path>
                </g>
            </g>
            <text id="Wow-That-Was-Fast!" font-family="AmericanPurpose, American Purpose" font-size="33" font-weight="normal">
                <tspan x="0.057" y="170">Wow That Was Fast!</tspan>
            </text>
        </g>
    </g>
</svg>